<svg height="300px" width="300px" fill="#000000" xmlns="http://www.w3.org/2000/svg" xmlns:xlink="http://www.w3.org/1999/xlink" version="1.1" x="0px" y="0px" viewBox="0 0 100 100" enable-background="new 0 0 100 100" xml:space="preserve"><path d="M49.7,12.4c-21.1,0-38.2,17.1-38.2,38.2s17.1,38.2,38.2,38.2c21.1,0,38.2-17.1,38.2-38.2S70.8,12.4,49.7,12.4z M49.7,85.2  c-19,0-34.5-15.5-34.5-34.5s15.5-34.5,34.5-34.5c19,0,34.5,15.5,34.5,34.5S68.7,85.2,49.7,85.2z M43.6,36.1h-6  c-1.9,0-3.4,1.5-3.4,3.4v22.4c0,1.9,1.5,3.4,3.4,3.4h6c1.9,0,3.4-1.5,3.4-3.4V39.5C47,37.6,45.5,36.1,43.6,36.1z M43.3,61.5H38V39.8  h5.3V61.5z M61.7,36.1h-6c-1.9,0-3.4,1.5-3.4,3.4v22.4c0,1.9,1.5,3.4,3.4,3.4h6c1.9,0,3.4-1.5,3.4-3.4V39.5  C65.1,37.6,63.6,36.1,61.7,36.1z M61.4,61.5h-5.3V39.8h5.3V61.5z"/></svg>